<?xml version="1.0" encoding="iso-8859-1"?>
<!-- Uploaded to: SVG Repo, www.svgrepo.com, Generator: SVG Repo Mixer Tools -->
<!DOCTYPE svg PUBLIC "-//W3C//DTD SVG 1.1//EN" "http://www.w3.org/Graphics/SVG/1.1/DTD/svg11.dtd">
<svg fill="#000000" height="800px" width="800px" version="1.1" id="Capa_1" xmlns="http://www.w3.org/2000/svg" xmlns:xlink="http://www.w3.org/1999/xlink" 
	 viewBox="0 0 295.5 295.5" xml:space="preserve">
<g>
	<path d="M288,129.355h-28.79v-12.1c0-4.143-3.357-7.5-7.5-7.5h-12.499c-2.279-9.588-5.984-18.663-11.063-27.101l8.963-9.11
		c2.871-2.918,2.871-7.6,0-10.519l-21.006-21.357c-1.409-1.434-3.336-2.241-5.347-2.241c-2.011,0-3.937,0.808-5.347,2.24
		l-8.829,8.976c-8.244-5.102-17.111-8.833-26.482-11.143V26.646c0-4.143-3.357-7.5-7.5-7.5h-29.699c-4.143,0-7.5,3.357-7.5,7.5
		v12.855c-9.369,2.309-18.239,6.04-26.487,11.144l-8.821-8.969c-1.41-1.434-3.336-2.241-5.347-2.241h-0.001
		c-2.01,0-3.937,0.807-5.346,2.24L58.392,63.026c-2.872,2.918-2.872,7.601-0.001,10.519l8.962,9.109
		c-5.078,8.437-8.782,17.511-11.063,27.1H43.79c-4.143,0-7.5,3.357-7.5,7.5v12.1H7.5c-4.143,0-7.5,3.357-7.5,7.5v132
		c0,4.143,3.357,7.5,7.5,7.5H288c4.143,0,7.5-3.357,7.5-7.5v-132C295.5,132.712,292.143,129.355,288,129.355z M51.29,124.755h11.121
		c3.656,0,6.78-2.637,7.394-6.242c2.007-11.793,6.473-22.75,13.271-32.565c2.052-2.961,1.708-6.962-0.818-9.53l-7.999-8.131
		l10.485-10.657l7.819,7.951c2.591,2.632,6.71,2.989,9.715,0.839C111.903,59.526,122.644,55,134.2,52.968
		c3.586-0.631,6.201-3.746,6.201-7.387V34.146h14.699v11.434c0,3.641,2.614,6.755,6.199,7.387c11.561,2.035,22.3,6.561,31.918,13.45
		c3.003,2.152,7.124,1.794,9.714-0.837l7.827-7.957l10.485,10.661l-8.002,8.134c-2.526,2.568-2.87,6.57-0.818,9.531
		c6.802,9.816,11.267,20.772,13.269,32.563c0.613,3.605,3.737,6.244,7.395,6.244h11.123v4.6h-56.6
		c-1.521-20.951-18.809-37.529-39.859-37.529s-38.34,16.578-39.861,37.529h-56.6V124.755z M122.946,129.355
		c1.459-12.668,12.023-22.529,24.809-22.529c12.779,0,23.34,9.861,24.799,22.529H122.946z M280.5,261.354H15v-117h265.5V261.354z"/>
	<path d="M40.5,177.355H57c4.143,0,7.5-3.357,7.5-7.5c0-4.143-3.357-7.5-7.5-7.5H40.5c-4.143,0-7.5,3.357-7.5,7.5
		C33,173.997,36.357,177.355,40.5,177.355z"/>
	<path d="M90,177.355h16.5c4.143,0,7.5-3.357,7.5-7.5c0-4.143-3.357-7.5-7.5-7.5H90c-4.143,0-7.5,3.357-7.5,7.5
		C82.5,173.997,85.857,177.355,90,177.355z"/>
	<path d="M139.5,177.355H156c4.143,0,7.5-3.357,7.5-7.5c0-4.143-3.357-7.5-7.5-7.5h-16.5c-4.143,0-7.5,3.357-7.5,7.5
		C132,173.997,135.357,177.355,139.5,177.355z"/>
	<path d="M189,177.355h16.5c4.143,0,7.5-3.357,7.5-7.5c0-4.143-3.357-7.5-7.5-7.5H189c-4.143,0-7.5,3.357-7.5,7.5
		C181.5,173.997,184.857,177.355,189,177.355z"/>
	<path d="M238.5,177.355H255c4.143,0,7.5-3.357,7.5-7.5c0-4.143-3.357-7.5-7.5-7.5h-16.5c-4.143,0-7.5,3.357-7.5,7.5
		C231,173.997,234.357,177.355,238.5,177.355z"/>
	<path d="M40.5,243.355H57c4.143,0,7.5-3.357,7.5-7.5c0-4.143-3.357-7.5-7.5-7.5H40.5c-4.143,0-7.5,3.357-7.5,7.5
		C33,239.997,36.357,243.355,40.5,243.355z"/>
	<path d="M205.5,228.355H89.75c-4.143,0-7.5,3.357-7.5,7.5c0,4.143,3.357,7.5,7.5,7.5H205.5c4.143,0,7.5-3.357,7.5-7.5
		C213,231.712,209.643,228.355,205.5,228.355z"/>
	<path d="M255,228.355h-16.5c-4.143,0-7.5,3.357-7.5,7.5c0,4.143,3.357,7.5,7.5,7.5H255c4.143,0,7.5-3.357,7.5-7.5
		C262.5,231.712,259.143,228.355,255,228.355z"/>
	<path d="M57.75,202.855c0,4.143,3.357,7.5,7.5,7.5h16.5c4.143,0,7.5-3.357,7.5-7.5c0-4.143-3.357-7.5-7.5-7.5h-16.5
		C61.107,195.355,57.75,198.712,57.75,202.855z"/>
	<path d="M107.25,202.855c0,4.143,3.357,7.5,7.5,7.5h16.5c4.143,0,7.5-3.357,7.5-7.5c0-4.143-3.357-7.5-7.5-7.5h-16.5
		C110.607,195.355,107.25,198.712,107.25,202.855z"/>
	<path d="M156.75,202.855c0,4.143,3.357,7.5,7.5,7.5h16.5c4.143,0,7.5-3.357,7.5-7.5c0-4.143-3.357-7.5-7.5-7.5h-16.5
		C160.107,195.355,156.75,198.712,156.75,202.855z"/>
	<path d="M206.25,202.855c0,4.143,3.357,7.5,7.5,7.5h16.5c4.143,0,7.5-3.357,7.5-7.5c0-4.143-3.357-7.5-7.5-7.5h-16.5
		C209.607,195.355,206.25,198.712,206.25,202.855z"/>
</g>
</svg>